<svg xmlns="http://www.w3.org/2000/svg" viewBox="0 0 64 64" fill="none">
  <rect width="64" height="64" rx="12" fill="#7c3aed"/>
  <path d="M32 14C22.059 14 14 22.059 14 32C14 41.941 22.059 50 32 50C41.941 50 50 41.941 50 32C50 22.059 41.941 14 32 14ZM32 18C39.732 18 46 24.268 46 32C46 39.732 39.732 46 32 46C24.268 46 18 39.732 18 32C18 24.268 24.268 18 32 18Z" fill="white"/>
  <path d="M32 22C28.686 22 26 24.686 26 28C26 29.964 27.022 31.667 28.585 32.585C25.422 33.853 23 36.985 23 40.667V44H41V40.667C41 36.985 38.578 33.853 35.415 32.585C36.978 31.667 38 29.964 38 28C38 24.686 35.314 22 32 22Z" fill="white"/>
</svg> 